<svg height="512pt" viewBox="0 -66 512 512" width="512pt" xmlns="http://www.w3.org/2000/svg"><path fill="#FAC547" d="M464.23 262.281v-32.246h26.82v-60.722h20.763v-27.051C511.813 63.816 447.993 0 369.55 0H142.26C63.817-.004 0 63.816 0 142.258v27.054h20.758v60.72h26.82v32.25H0v62.53c0 30.891 25.133 56.02 56.023 56.02H455.98c30.891 0 56.02-25.129 56.02-56.02v-62.53zM328.957 230.04l-73.05 64.844-73.055-64.844zm45.207 0h60.055v32.242h-96.38zM142.262 30.008H369.55c60.902 0 110.637 48.762 112.21 109.293H30.052C31.625 78.77 81.355 30.008 142.26 30.008zm318.777 139.304v30.711H50.77v-30.71zM77.59 230.04h60.056l36.324 32.242H77.59zm404.4 94.774c0 14.343-11.669 26.011-26.009 26.011H56.023c-14.343 0-26.011-11.668-26.011-26.012v-32.519h177.765l48.13 42.723 48.124-42.723h177.957zm0 0"/><path d="M81.828 87.734h29.617v29.621H81.828zm56.91-39.011h29.621V78.34h-29.62zm65.028 39.011h29.617v29.621h-29.617zm42.515-41.515h29.617v29.62h-29.617zM299.16 77.73h29.621v29.622h-29.62zm57.024-29.007H385.8V78.34h-29.617zM406.7 87.734h29.62v29.621H406.7zm0 0"/></svg>